<?xml version="1.0" encoding="utf-8"?>
<!-- Generator: Adobe Illustrator 19.0.0, SVG Export Plug-In . SVG Version: 6.00 Build 0)  -->
<svg version="1.1" xmlns="http://www.w3.org/2000/svg" xmlns:xlink="http://www.w3.org/1999/xlink" x="0px" y="0px"
	 viewBox="0 0 1600 1200" style="enable-background:new 0 0 1600 1200;" xml:space="preserve">
<style type="text/css">
	.st0{fill:#FEFFFF;}
	.st1{fill:#366F95;}
	.st2{fill:#1E1F26;}
	.st3{fill:#35A79C;}
	.st4{fill:#039688;}
	.st5{fill:#65C3BA;}
	.st6{fill:#E8952C;}
	.st7{fill:#FFFFFF;}
	.st8{fill:#FEB955;}
	.st9{fill:#89C4C0;}
	.st10{fill:#D8EAF4;}
	.st11{fill:#FE9C8F;}
	.st12{fill:#FFBA55;}
	.st13{fill:#F9CAA7;}
	.st14{fill:#E13253;}
	.st15{fill:#FA6142;}
	.st16{fill:#89C4BF;}
	.st17{fill:#3D899C;}
	.st18{fill:#3D6271;}
	.st19{fill:#283655;}
</style>
<g id="Background">
	<rect id="XMLID_3_" class="st0" width="1600" height="1200"/>
</g>
<g id="Objects">
	<g id="XMLID_229_">
		<ellipse id="XMLID_127_" class="st1" cx="1144" cy="1059.3" rx="102.5" ry="6.5"/>
		<ellipse id="XMLID_152_" class="st2" cx="1162.3" cy="1056.3" rx="68.8" ry="5.3"/>
		<ellipse id="XMLID_125_" class="st1" cx="1332.8" cy="1104.3" rx="82.3" ry="25.8"/>
		<ellipse id="XMLID_151_" class="st2" cx="1329.4" cy="1092.4" rx="68.8" ry="17.6"/>
	</g>
	<g id="XMLID_228_">
		<path id="XMLID_224_" class="st1" d="M1536.3,870.1H860c-2.6,0-4.8-2.1-4.8-4.8l0,0c0-2.6,2.1-4.8,4.8-4.8h676.3
			c2.6,0,4.8,2.1,4.8,4.8l0,0C1541.1,867.9,1538.9,870.1,1536.3,870.1z"/>
		<path id="XMLID_123_" class="st1" d="M1440.6,1121.3H884c-2.4,0-4.4,2-4.4,4.4l0,0c0,2.4,2,4.4,4.4,4.4h556.6c2.4,0,4.4-2,4.4-4.4
			l0,0C1445,1123.3,1443,1121.3,1440.6,1121.3z"/>
		<path id="XMLID_104_" class="st1" d="M1133.9,1082.8H322.1c-2.4,0-4.4,2-4.4,4.4l0,0c0,2.4,2,4.4,4.4,4.4h811.9
			c2.4,0,4.4-2,4.4-4.4l0,0C1138.4,1084.7,1136.4,1082.8,1133.9,1082.8z"/>
		<path id="XMLID_221_" class="st1" d="M1029.1,995.7H221.6c-1.9,0-3.5-1.6-3.5-3.5v-2.4c0-1.9,1.6-3.5,3.5-3.5h807.5
			c1.9,0,3.5,1.6,3.5,3.5v2.4C1032.6,994.1,1031,995.7,1029.1,995.7z"/>
	</g>
	<g id="XMLID_26_">
		<path id="XMLID_255_" class="st3" d="M846,45.2c0,0,40.7,141.8-94.6,221c0,0-62.5-42.4-25.3-111.1c8.2-15.2,20.9-27.3,36-35.3
			C787.3,106.6,832.8,78.7,846,45.2z"/>
		<g id="XMLID_232_">
			<path id="XMLID_227_" class="st4" d="M864.9,260.7c11.3-20.1,23.8-39.6,37.6-58c12.7-17,27.4-39.2,49.1-45.1
				c12.4-3.3,22.4,0.8,32.6,7.6c8.3,5.6,16.7,10,26.5,12.1c18.3,3.9,38,0.2,53.1-10.9c15.8-11.6,25.8-29.7,27.4-49.2
				c0.2-1.9-2.8-1.9-3,0c-1.6,19.6-12.4,38-28.9,48.7c-17.9,11.6-41.8,13.1-61.1,4.1c-8.4-3.9-15.3-10.4-23.8-14.1
				c-8.8-3.8-18.7-3.3-27.6,0c-18.4,6.9-30.9,24.3-42.5,39.4c-15.6,20.2-29.6,41.6-42,63.8C861.4,260.8,864,262.4,864.9,260.7
				L864.9,260.7z"/>
		</g>
		<g id="XMLID_245_">
			<path id="XMLID_222_" class="st4" d="M1021.6,314.1c-0.2-15.1-1.8-30.2-5.2-45c-2.7-12.3-6.2-24.9-12.3-36
				c-4.8-8.7-11.7-16.8-21.3-20.2c-10.6-3.8-26.9-1.6-35.4,6.3c-6.1,5.7-5.8,17,4.1,18.1c8.8,1,16.9-5.7,20.5-13.2
				c4.2-8.6,3.1-18.4-3.3-25.6c-7-7.9-18-11-28.2-12.1c-16-1.7-32.6-0.3-45.7-11.3c-11.1-9.2-17.2-23.5-15.9-37.9
				c0.2-1.9-2.8-1.9-3,0c-1.6,17.4,7.3,34.8,22.2,43.9c18.7,11.4,42.3,3.1,61.1,13.7c9.2,5.2,14.7,14.7,11.2,25.2
				c-1.5,4.5-4.5,8.7-8.4,11.3c-4.5,3-15.5,5.8-15.8-2.9c-0.3-7.5,8.5-10.8,14.4-12.5c6.5-1.9,13.6-2.7,20.2-0.7
				c9.7,3.1,16.5,11.2,21.1,19.9c5.9,11,9.2,23.4,11.9,35.6c3.1,14.2,4.7,28.7,4.8,43.3C1018.6,316.1,1021.6,316.1,1021.6,314.1
				L1021.6,314.1z"/>
		</g>
		<path id="XMLID_248_" class="st5" d="M876.8,137.6c0,0-33.4-14.8-10.8-44.5c22.6-29.7,14.9-51.9,14.9-51.9
			S934.6,102.9,876.8,137.6z"/>
		<path id="XMLID_246_" class="st4" d="M1343.1,706.1c0,0,87.6-160.3,185.5-131C1528.7,575.1,1505.3,697.5,1343.1,706.1z"/>
		<path id="XMLID_247_" class="st5" d="M1452.4,548.7c2.9,9.4,3.9,16.1,2,16.9c-1.9,0.8-6.2-4.7-11-13.7
			c-11.8,4.6-22.3,10.1-31.7,16.2c5.3,14,6.1,25.1,1.3,27.9c-4.5,2.6-12.7-2.6-21.4-12.6c-52.1,46.2-58.7,110.1-58.7,110.1
			c150.9-17.5,160.7-154.4,160.7-154.4C1478.4,541.3,1464.8,544.5,1452.4,548.7z"/>
		<path id="XMLID_233_" class="st4" d="M1393.7,351.7c0,0,5.9,128,189.9,117c0,0-28.9-9.7-52.9-45.3s-53.5-61.8-95-64.1
			C1394.3,357,1393.7,351.7,1393.7,351.7z"/>
		<path id="XMLID_226_" class="st4" d="M1514.8,325.1c0,0,18.6,21.7,44.2,33.2c0,0-47.4-4.8-73.6-26.2
			C1485.4,332.1,1481.7,317.2,1514.8,325.1z"/>
		<path id="XMLID_225_" class="st5" d="M1383.9,399.3c0,0,9,14.9,86.3-60.2c26-14,44.6-14,44.6-14s-47.8-29.8-130.9-4.9V399.3z"/>
		<g id="XMLID_219_">
			<path id="XMLID_134_" class="st4" d="M233.1,323c-16.6,7.3-33.3,14.8-47.6,26c-14.6,11.4-24.8,26.5-30.8,44
				c-12.3,36.1-6.2,77.3,15.9,108.3c11.2,15.7,26,28.5,43.1,37.3c1.7,0.9,3.2-1.7,1.5-2.6c-30.7-16-53.5-44.9-61.1-78.8
				c-8-36.1,0.8-78.3,29.7-103.1c14.8-12.7,33-20.7,50.7-28.6C236.4,324.8,234.9,322.2,233.1,323L233.1,323z"/>
		</g>
		<path id="XMLID_220_" class="st4" d="M181.5,271c0,0-24.9-81.9,26.8-122.4s53.6-89.1,53.6-89.1s70.7,166.9-49.7,235.8L181.5,271z"
			/>
		<path id="XMLID_223_" class="st5" d="M238.6,250.5c-98-52.5-189.5-17-189.5-17s37.8,4.7,72.8,20.8c0.6,0,1.2,0,1.8,0
			c25.2,0,45.7,2.2,45.7,5c0,2.1-12.3,4-29.6,4.7c15,10,27,23.9,34.9,40.2c1.2,2.5,2.4,4.9,3.6,7.2c17.1-8.9,32-12.8,34.3-8.8
			c2.2,4-9.1,14.7-25.8,24.6c28.3,49.7,52.2,63.4,52.2,63.4L238.6,250.5z"/>
		<g id="XMLID_216_">
			<path id="XMLID_144_" class="st4" d="M197.8,687.5c-47.6,0-86.3-36.8-86.3-82s38.7-82,86.3-82c47.6,0,86.3,36.8,86.3,82
				S245.4,687.5,197.8,687.5z M197.8,526.5c-46,0-83.3,35.4-83.3,79s37.4,79,83.3,79s83.3-35.4,83.3-79S243.8,526.5,197.8,526.5z"/>
		</g>
		<g id="XMLID_214_">
			<path id="XMLID_230_" class="st4" d="M232.3,863.1c-40.6-28.4-66.7-73.5-77.9-121.2c-11.6-49.8-10.5-108.4,16.5-153.2
				c11.6-19.3,30.1-38.6,54.1-39.3c1.9-0.1,1.9-3.1,0-3c-20.2,0.6-36.9,13.8-48.8,29.2c-15.8,20.5-24.6,45.7-28.6,71
				c-8.6,53.9,1.3,112.3,29,159.5c13.7,23.4,32,44.1,54.2,59.6C232.4,866.8,233.9,864.2,232.3,863.1L232.3,863.1z"/>
		</g>
		<path id="XMLID_218_" class="st3" d="M210,524.2c0,0-115.9-4.5-69.1,105c0,0,14.3-22.7,37-33.7C200.6,584.5,220.1,556.1,210,524.2
			z"/>
		<path id="XMLID_215_" class="st4" d="M226,737.9c0,0-36-17-72,37s-84,42.9-84,42.9S209,891.9,226,737.9z"/>
		<path id="XMLID_250_" class="st5" d="M1202,165.1c0,0-5.5-10.5-53-8s-61-41-61-41S1179.5,85.6,1202,165.1z"/>
	</g>
	<g id="XMLID_210_">
		<polygon id="XMLID_2_" class="st6" points="1132.1,860.6 1118.4,860.6 1058.1,703 1071.8,703 		"/>
		<polygon id="XMLID_13_" class="st6" points="904.1,860.6 917.9,860.6 978.2,703 964.5,703 		"/>
		<path id="XMLID_207_" class="st1" d="M1373.6,707.2H572.7c-6.6,0-12-5.4-12-12V318.1c0-6.6,5.4-12,12-12h800.9c6.6,0,12,5.4,12,12
			v377.1C1385.6,701.8,1380.2,707.2,1373.6,707.2z"/>
		<g id="XMLID_6_">
			<path id="XMLID_27_" class="st7" d="M1342.4,666.4H600.9c-7.2,0-13-3.8-13-8.6V333.7c0-4.7,5.8-8.6,13-8.6h741.5
				c7.2,0,13,3.8,13,8.6v324.1C1355.4,662.5,1349.5,666.4,1342.4,666.4z M600.9,326.5c-6.1,0-11,3.2-11,7.2v324.1
				c0,4,4.9,7.2,11,7.2h741.5c6.1,0,11-3.2,11-7.2V333.7c0-4-4.9-7.2-11-7.2H600.9z"/>
		</g>
		<path id="XMLID_10_" class="st8" d="M813.1,704.4v-10c0-6.6,5.4-12,12-12h568.6c6.6,0,12,5.4,12,12v10c0,6.6-5.4,12-12,12H825.1
			C818.5,716.4,813.1,711,813.1,704.4z"/>
		<path id="XMLID_88_" class="st1" d="M796.9,986.3H243.4c-6.6,0-12-5.4-12-12V179.1c0-6.6,5.4-12,12-12h553.4c6.6,0,12,5.4,12,12
			v795.2C808.9,980.9,803.5,986.3,796.9,986.3z"/>
		<path id="XMLID_25_" class="st9" d="M851.6,939.2H269.8c-6.6,0-12-5.4-12-12V213.5c0-6.6,5.4-12,12-12h581.8c6.6,0,12,5.4,12,12
			v713.7C863.6,933.8,858.2,939.2,851.6,939.2z"/>
		<g id="XMLID_203_">
			<g id="XMLID_155_">
				<path id="XMLID_32_" class="st10" d="M801.2,414.6H448.3c-9.9,0-18-8.1-18-18v-27.7c0-9.9,8.1-18,18-18h352.9
					c9.9,0,18,8.1,18,18v27.7C819.2,406.4,811.1,414.6,801.2,414.6z"/>
				<g id="XMLID_34_">
					<path id="XMLID_117_" class="st10" d="M748.9,431.4H500.6c-17.8,0-32.4-14.5-32.4-32.4s14.5-32.4,32.4-32.4h248.3
						c17.8,0,32.4,14.5,32.4,32.4S766.7,431.4,748.9,431.4z M500.6,367.6c-17.3,0-31.4,14.1-31.4,31.4c0,17.3,14.1,31.4,31.4,31.4
						h248.3c17.3,0,31.4-14.1,31.4-31.4c0-17.3-14.1-31.4-31.4-31.4H500.6z"/>
				</g>
				<circle id="XMLID_7_" class="st1" cx="363" cy="388.3" r="46.8"/>
				<g id="XMLID_28_">
					<path id="XMLID_109_" class="st7" d="M351.7,435.6c-26.1,0-47.3-21.2-47.3-47.3c0-26.1,21.2-47.3,47.3-47.3
						c26.1,0,47.3,21.2,47.3,47.3C399.1,414.3,377.8,435.6,351.7,435.6z M351.7,342.1c-25.5,0-46.2,20.7-46.2,46.2
						s20.7,46.2,46.2,46.2c25.5,0,46.2-20.7,46.2-46.2S377.2,342.1,351.7,342.1z"/>
				</g>
			</g>
			<g id="XMLID_133_">
				<path id="XMLID_46_" class="st11" d="M329.8,380.2l18.3-6.5c0,0,3.9-6,10.3-8.9c3.5-3,7.7-8.1,7.7-8.1s5,1.7-3.4,10
					c0,0,20.7-1.6,22.9,0c1.3,1-0.4,2.7-0.4,2.7l3.9-0.3c0,0,2.7,2.7-2.1,3.8c0,0,2.8,1.9-7.3,4.6c0,0,2.7,1.3,0.3,3
					c-2.3,1.6-17.9,5.1-24.1,4.6c0,0-9.1,0.4-21.4,8.3C334.5,393.4,326,386.5,329.8,380.2z"/>
				<path id="XMLID_89_" class="st12" d="M374.5,378.5l-15.1,3.2c-2.3,0.5-4.6-1-5.1-3.3l-1.3-6c-0.5-2.3,1-4.6,3.3-5.1l15.1-3.2
					c2.3-0.5,4.6,1,5.1,3.3l1.3,6C378.3,375.7,376.8,378,374.5,378.5z"/>
				<path id="XMLID_76_" class="st13" d="M340.7,406.3l8.9-14.3c0,0-2-8.5,3.3-15.2c5.3-6.8,6.4-7.6,7.4-6.1c1,1.5-4.2,8.8-4.2,8.8
					s5-2.9,7.8-5.4c2.8-2.5,13.3-13.4,13-7.8c0,0,2.9-3.4,4.4-0.2l-1.5,2.9c0,0,4.4-0.9,1.3,3.5s-4.1,5.8-4.1,5.8s2.5-2.7,3.1,0.2
					l-10.4,12.9c0,0-1.6,2.4-9.5,8.1l-6.7,11.7C353.6,411.2,344.6,414.3,340.7,406.3z"/>
				<circle id="XMLID_110_" class="st7" cx="350.4" cy="370.7" r="2"/>
				<circle id="XMLID_111_" class="st7" cx="354.1" cy="364.7" r="2.1"/>
				<circle id="XMLID_113_" class="st7" cx="360.8" cy="363.4" r="2.4"/>
				<circle id="XMLID_115_" class="st7" cx="368.5" cy="361.5" r="2.7"/>
				<circle id="XMLID_116_" class="st7" cx="380" cy="360.8" r="2.6"/>
				<circle id="XMLID_118_" class="st7" cx="373.9" cy="358" r="2.6"/>
				<circle id="XMLID_120_" class="st7" cx="365.5" cy="347.9" r="2"/>
				<circle id="XMLID_121_" class="st7" cx="378.5" cy="355.2" r="2.1"/>
				<circle id="XMLID_124_" class="st7" cx="371.6" cy="352.3" r="1.8"/>
				<circle id="XMLID_126_" class="st7" cx="366.6" cy="353.5" r="1.9"/>
				<circle id="XMLID_128_" class="st7" cx="355.3" cy="359.1" r="1.6"/>
				<circle id="XMLID_131_" class="st7" cx="384.6" cy="364.3" r="1.1"/>
				<circle id="XMLID_132_" class="st7" cx="360.8" cy="355.2" r="2.3"/>
			</g>
		</g>
		<g id="XMLID_205_">
			<g id="XMLID_165_">
				<path id="XMLID_179_" class="st10" d="M798.9,660.1H446c-9.9,0-18-8.1-18-18v-27.7c0-9.9,8.1-18,18-18h352.9c9.9,0,18,8.1,18,18
					v27.7C817,652,808.8,660.1,798.9,660.1z"/>
				<g id="XMLID_175_">
					<path id="XMLID_176_" class="st10" d="M746.6,677H498.3c-17.8,0-32.4-14.5-32.4-32.4c0-17.8,14.5-32.4,32.4-32.4h248.3
						c17.8,0,32.4,14.5,32.4,32.4C779,662.4,764.5,677,746.6,677z M498.3,613.2c-17.3,0-31.4,14.1-31.4,31.4
						c0,17.3,14.1,31.4,31.4,31.4h248.3c17.3,0,31.4-14.1,31.4-31.4c0-17.3-14.1-31.4-31.4-31.4H498.3z"/>
				</g>
				<circle id="XMLID_174_" class="st1" cx="360.7" cy="633.8" r="46.8"/>
				<g id="XMLID_167_">
					<path id="XMLID_168_" class="st7" d="M349.5,681.2c-26.1,0-47.3-21.2-47.3-47.3s21.2-47.3,47.3-47.3
						c26.1,0,47.3,21.2,47.3,47.3S375.6,681.2,349.5,681.2z M349.5,587.6c-25.5,0-46.2,20.7-46.2,46.2S324,680,349.5,680
						c25.5,0,46.2-20.7,46.2-46.2S375,587.6,349.5,587.6z"/>
				</g>
			</g>
			<g id="XMLID_163_">
				<path id="XMLID_164_" class="st13" d="M377.2,649.9l-8.1-5.8c0.4,0.3,5.3,4.4,5.5,8.4c0,0-0.4,2-3,4c-0.2,0.2-0.4,0.3-0.7,0.5
					c-3.2,2.2-9.1,4.2-20,3.3l-17-15.7l-2.6-1.6l-8.9-1.9c0,0-5.7-11.7,6.5-21.7l10,3.6l19.3,3.2l23.6,18.4
					C381.9,644.7,384,650.1,377.2,649.9z"/>
				<path id="XMLID_90_" class="st11" d="M389.1,615.9l-9.7,4.1c0,0-18.2-3.6-21-2.8c-2.8,0.8-10.6,3.4-10.6,3.4s-15,10.1-6.2,10.2
					c7.6,0,9.4-3.4,9.4-3.4l7.2-1.1l23.6,18.4l5.8-5l11.5-3.4C399.1,636.3,400.3,621.9,389.1,615.9z"/>
				<path id="XMLID_147_" class="st11" d="M333.9,644.7c0,0,3.3,13.2,17,15.7c0,0,3.3-8.9-3.5-12.5
					C340.6,644.2,333.9,644.7,333.9,644.7z"/>
				<path id="XMLID_149_" class="st14" d="M384.2,658.9l-0.4-0.4c-0.4-0.4-0.4-1,0-1.4l14.4-14.4c0.4-0.4,1-0.4,1.4,0l0.4,0.4
					c0.4,0.4,0.4,1,0,1.4l-14.4,14.4C385.2,659.3,384.6,659.3,384.2,658.9z"/>
				<path id="XMLID_150_" class="st14" d="M383.7,643.1l0.4-0.4c0.4-0.4,1-0.4,1.4,0l14.4,14.4c0.4,0.4,0.4,1,0,1.4l-0.4,0.4
					c-0.4,0.4-1,0.4-1.4,0l-14.4-14.4C383.3,644.1,383.3,643.5,383.7,643.1z"/>
			</g>
		</g>
		<g id="XMLID_204_">
			<g id="XMLID_192_">
				<path id="XMLID_202_" class="st10" d="M801.2,540.6H448.3c-9.9,0-18-8.1-18-18v-27.7c0-9.9,8.1-18,18-18h352.9
					c9.9,0,18,8.1,18,18v27.7C819.2,532.5,811.1,540.6,801.2,540.6z"/>
				<g id="XMLID_198_">
					<path id="XMLID_199_" class="st10" d="M748.9,557.4H500.6c-17.8,0-32.4-14.5-32.4-32.4c0-17.8,14.5-32.4,32.4-32.4h248.3
						c17.8,0,32.4,14.5,32.4,32.4C781.3,542.9,766.7,557.4,748.9,557.4z M500.6,493.6c-17.3,0-31.4,14.1-31.4,31.4
						s14.1,31.4,31.4,31.4h248.3c17.3,0,31.4-14.1,31.4-31.4s-14.1-31.4-31.4-31.4H500.6z"/>
				</g>
				<circle id="XMLID_197_" class="st1" cx="363" cy="514.3" r="46.8"/>
				<g id="XMLID_193_">
					<path id="XMLID_194_" class="st7" d="M351.7,561.6c-26.1,0-47.3-21.2-47.3-47.3s21.2-47.3,47.3-47.3
						c26.1,0,47.3,21.2,47.3,47.3S377.8,561.6,351.7,561.6z M351.7,468.1c-25.5,0-46.2,20.7-46.2,46.2c0,25.5,20.7,46.2,46.2,46.2
						c25.5,0,46.2-20.7,46.2-46.2C397.9,488.8,377.2,468.1,351.7,468.1z"/>
				</g>
			</g>
			<g id="XMLID_182_">
				<g id="XMLID_139_">
					<path id="XMLID_159_" class="st15" d="M358,508.4c0,0-18.6,8-20.5,9.7l-9.1,20.1h68.5L386.7,516l-18-7.7L358,508.4z"/>
					<path id="XMLID_169_" class="st13" d="M368.8,516.1c-0.8,1.8-5.9,3.3-8.8,0c-2.5-2.8-2.1-13.3-2-16.4c0-0.6,0.1-0.9,0.1-0.9
						l1.7,0.7l10.4,4.4C367.5,508.1,369.6,514.3,368.8,516.1z"/>
					<path id="XMLID_166_" class="st11" d="M368.8,516.1c-9.4-5.7-10.8-16.4-10.8-16.4l1.8-0.2l10.4,4.4
						C367.5,508.1,369.6,514.3,368.8,516.1z"/>
					<path id="XMLID_148_" class="st13" d="M374.1,497.6c-0.6,5.7-2.5,11.8-7.9,10.7c-2.2-0.5-4-1.7-5.3-3.4
						c-4.7-5.8-4.7-16.8-4.7-16.8h18C374.2,488.1,374.6,492.7,374.1,497.6z"/>
					<path id="XMLID_137_" class="st2" d="M357.3,496.8c0,0,2.3-2.7,1.5-7c0,0,13.8,5.1,16.6,0s0.6-9.1,0.6-9.1s-12.1-4.9-21,3
						C355.1,483.7,348.7,482.8,357.3,496.8z"/>
					<path id="XMLID_146_" class="st16" d="M374.1,497.6c-0.6,5.7-2.5,11.8-7.9,10.7c-2.2-0.5-4-1.7-5.3-3.4
						c2.7-3.4,1.3-7.4,1.3-7.4C368.8,498.8,372.5,498.1,374.1,497.6z"/>
					<g id="XMLID_136_">
						<path id="XMLID_141_" class="st0" d="M367.4,508.7c-3.3,0-6.5-3.6-6.6-3.7l-0.1-0.1l0.1-0.1c2.5-2.9,1.3-7.3,1.3-7.3l-0.1-0.2
							l0.2,0c9,1.8,11.8,0.2,11.8,0.2l0.2-0.1l0,0.2c-0.9,6.4-2.8,10.1-5.6,10.9C368.3,508.6,367.9,508.7,367.4,508.7z M361.1,504.9
							c0.5,0.6,4.2,4.4,7.5,3.4c2.6-0.8,4.5-4.3,5.4-10.5c-0.8,0.3-3.9,1.3-11.6-0.2C362.6,498.4,363.2,502.2,361.1,504.9z"/>
					</g>
					<g id="XMLID_135_">
						<path id="XMLID_140_" class="st0" d="M361,505c-3.8-5.9-4.2-8.8-4.2-8.9l0,0l0,0c0-0.3,0.2-0.5,0.4-0.6
							c1.3-0.6,5.1,1.8,5.3,1.9l-0.1,0.2c-1.1-0.7-4.1-2.4-5-1.9c-0.2,0.1-0.2,0.2-0.3,0.4c0,0.2,0.6,3.1,4.2,8.8L361,505z"/>
					</g>
					
						<ellipse id="XMLID_138_" transform="matrix(0.9262 -0.3771 0.3771 0.9262 -161.0324 171.5942)" class="st13" cx="357.8" cy="497.1" rx="1" ry="1.8"/>
				</g>
			</g>
		</g>
		<g id="XMLID_206_">
			<g id="XMLID_180_">
				<path id="XMLID_191_" class="st10" d="M800,784.8H447.2c-9.9,0-18-8.1-18-18V739c0-9.9,8.1-18,18-18H800c9.9,0,18,8.1,18,18
					v27.7C818.1,776.7,810,784.8,800,784.8z"/>
				<g id="XMLID_187_">
					<path id="XMLID_188_" class="st10" d="M747.8,801.6H499.4c-17.8,0-32.4-14.5-32.4-32.4c0-17.8,14.5-32.4,32.4-32.4h248.3
						c17.8,0,32.4,14.5,32.4,32.4C780.1,787.1,765.6,801.6,747.8,801.6z M499.4,737.8c-17.3,0-31.4,14.1-31.4,31.4
						c0,17.3,14.1,31.4,31.4,31.4h248.3c17.3,0,31.4-14.1,31.4-31.4c0-17.3-14.1-31.4-31.4-31.4H499.4z"/>
				</g>
				<circle id="XMLID_186_" class="st1" cx="361.8" cy="758.5" r="46.8"/>
				<g id="XMLID_181_">
					<path id="XMLID_183_" class="st7" d="M350.6,805.8c-26.1,0-47.3-21.2-47.3-47.3c0-26.1,21.2-47.3,47.3-47.3
						c26.1,0,47.3,21.2,47.3,47.3C397.9,784.6,376.7,805.8,350.6,805.8z M350.6,712.3c-25.5,0-46.2,20.7-46.2,46.2
						c0,25.5,20.7,46.2,46.2,46.2c25.5,0,46.2-20.7,46.2-46.2C396.8,733,376.1,712.3,350.6,712.3z"/>
				</g>
			</g>
			<g id="XMLID_157_">
				<path id="XMLID_173_" class="st13" d="M362.6,775.3c0,0-3.8,3.7-6,8.3c-0.7,1.5-1.3,3-1.4,4.6c0,0-14.2,3.9-17.1-5.2
					c0,0,4.9-10.1,7.1-19.7L362.6,775.3z"/>
				<path id="XMLID_171_" class="st11" d="M362.6,775.3c0,0-3.8,3.7-6,8.3c0,0-12-7-11.5-20.3L362.6,775.3z"/>
				<path id="XMLID_160_" class="st13" d="M372.1,738.1c0,0,2.8,3.9,1.3,14.2c0,0,5.4,5.5,4.9,7.3s-3.1,2.9-3.1,2.9s0,14-8.5,13.6
					c-8.5-0.4-21.6-11.3-21.9-13.5C344.6,760.5,329.4,721.7,372.1,738.1z"/>
				<path id="XMLID_161_" class="st2" d="M344.6,761.6c0,0,14.3-13.4,13.2-17.4c0,0,8.4,1.9,16.7-3.6c8.4-5.5,7-14.6,2.8-15
					c-4.2-0.4-30.9-0.8-32.3,3.6C345.1,729.2,315.2,724.9,344.6,761.6z"/>
				<ellipse id="XMLID_153_" class="st13" cx="352" cy="754" rx="3.5" ry="4.2"/>
				<path id="XMLID_158_" class="st13" d="M400.2,764.8c-0.7,0-1.3,0.4-1.6,0.9c0-1-0.9-1.8-1.9-1.8c-0.7,0-1.3,0.4-1.6,0.9v-0.4
					c0-1-0.9-1.9-1.9-1.9c-1,0-1.9,0.9-1.9,1.9v-5.9c0-1-0.9-1.9-1.9-1.9c-1,0-1.9,0.9-1.9,1.9v11.4v2.4v0.2l-3.5-4.3
					c-0.7-0.8-1.9-0.9-2.7-0.3c-0.8,0.7-0.9,1.9-0.3,2.7l7.5,9.2c0.4,0.5,0.9,0.7,1.5,0.7c0.3,0.1,0.6,0.1,0.9,0.1h7.7
					c1,0,1.9-0.5,2.6-1.2c0.5-0.3,0.9-0.9,0.9-1.6v-11.3C402.1,765.6,401.3,764.8,400.2,764.8z"/>
				<path id="XMLID_156_" class="st14" d="M371.9,790.6l-0.6-0.6c-0.2-0.2-0.2-0.5,0-0.7l10-10c0.2-0.2,0.5-0.2,0.7,0l0.6,0.6
					c0.2,0.2,0.2,0.5,0,0.7l-10,10C372.4,790.8,372.1,790.8,371.9,790.6z"/>
				<path id="XMLID_154_" class="st14" d="M371.3,779.8l0.6-0.6c0.2-0.2,0.5-0.2,0.7,0l10,10c0.2,0.2,0.2,0.5,0,0.7l-0.6,0.6
					c-0.2,0.2-0.5,0.2-0.7,0l-10-10C371.1,780.4,371.1,780,371.3,779.8z"/>
			</g>
		</g>
		<g id="XMLID_209_">
			<path id="XMLID_211_" class="st8" d="M278.6,789.8h-41.7c-8,0-14.5-6.5-14.5-14.5v-393c0-8,6.5-14.5,14.5-14.5h41.7
				c8,0,14.5,6.5,14.5,14.5v393C293.1,783.3,286.6,789.8,278.6,789.8z M236.9,372.8c-5.2,0-9.5,4.3-9.5,9.5v393
				c0,5.2,4.3,9.5,9.5,9.5h41.7c5.2,0,9.5-4.3,9.5-9.5v-393c0-5.2-4.3-9.5-9.5-9.5H236.9z"/>
		</g>
		<path id="XMLID_208_" class="st6" d="M236.4,787.3h-10c-6.6,0-12-5.4-12-12v-393c0-6.6,5.4-12,12-12h10c6.6,0,12,5.4,12,12v393
			C248.4,781.9,243,787.3,236.4,787.3z"/>
		<g id="XMLID_4_">
			<path id="XMLID_5_" class="st7" d="M842.3,948.9H260.4c-7.2,0-13-5.8-13-13V222.3c0-7.2,5.8-13,13-13h581.8c7.2,0,13,5.8,13,13
				v713.7C855.3,943.1,849.4,948.9,842.3,948.9z M260.4,211.3c-6.1,0-11,4.9-11,11v713.7c0,6.1,4.9,11,11,11h581.8
				c6.1,0,11-4.9,11-11V222.3c0-6.1-4.9-11-11-11H260.4z"/>
		</g>
		<rect id="XMLID_14_" x="888.7" y="392.2" class="st7" width="137.8" height="12.3"/>
		<rect id="XMLID_16_" x="888.7" y="419.9" class="st7" width="149.3" height="12.3"/>
		<rect id="XMLID_17_" x="888.7" y="447.7" class="st7" width="366.3" height="12.3"/>
		<rect id="XMLID_20_" x="896.7" y="589.9" class="st7" width="20.8" height="62.9"/>
		<rect id="XMLID_21_" x="930.6" y="577.2" class="st7" width="20.8" height="75.6"/>
		<rect id="XMLID_72_" x="964.8" y="563" class="st7" width="20.8" height="89.8"/>
	</g>
	<g id="XMLID_1_">
		<path id="XMLID_83_" class="st2" d="M1129.4,363.2c0,0,21.8-12.5,68.8-7.8l-9.1,34.1l-63.5,4L1129.4,363.2z"/>
		<path id="XMLID_18_" class="st11" d="M1304.2,1056.9l-17.1,2.3c-4.1,0.6-8-2.4-8.5-6.5l-9.2-67.6c-0.6-4.1,2.4-8,6.5-8.5l17.1-2.3
			c4.1-0.6,8,2.4,8.5,6.5l9.2,67.6C1311.3,1052.5,1308.3,1056.4,1304.2,1056.9z"/>
		<path id="XMLID_12_" class="st11" d="M1144.9,1046.3h-17.3c-4.2,0-7.6-3.4-7.6-7.6v-68.2c0-4.2,3.4-7.6,7.6-7.6h17.3
			c4.2,0,7.6,3.4,7.6,7.6v68.2C1152.5,1042.9,1149.1,1046.3,1144.9,1046.3z"/>
		<path id="XMLID_33_" class="st2" d="M941.2,433.1c0,0-20.2,11-19.2,29.2L941.2,433.1z"/>
		
			<ellipse id="XMLID_42_" transform="matrix(0.9775 0.2111 -0.2111 0.9775 91.2771 -242.6848)" class="st2" cx="1182.2" cy="306.1" rx="10.1" ry="27.2"/>
		<path id="XMLID_47_" class="st13" d="M1185.9,377.8c0,0-20,32.2-49.6,12.3c0,0,1.1-8.1,0.4-18.1c-0.4-6.7-1.7-14.2-4.5-20.7
			l46.8-33.8l1,9c0,0,0,0,0,0L1185.9,377.8z"/>
		<path id="XMLID_97_" class="st0" d="M1080.5,494.1c-3,7.1-9.5,15.2-17.5,23.2c-13.3,13.3-30.9,26.3-44.3,34c-3.6,2-8.6,1-14.5-2.3
			c-29.8-16.2-82.2-86.7-82.2-86.7l19.2-29.2c14.6,33,74.4,58.3,74.4,58.3c14.6-39.1,63.2-100,63.2-100L1080.5,494.1z"/>
		<path id="XMLID_74_" class="st17" d="M1312.2,1007.1l-31.3,1.1l-12.8,0.4c-0.2-20-32.7-114.1-53-162.8
			c-54.3-76.4-81.8-185.4-92.6-238.2c-0.7-3.3-1.3-6.4-1.8-9.2c-2.7-13.7-3.8-21.8-3.8-21.8l80.5,1.9c2.2,2.5,4.4,5.4,6.4,8.5
			c1.6,2.3,3.1,4.8,4.6,7.4c40,69.4,56,234.9,56,234.9c7,10.4,13,21.7,18.1,33.5C1311.1,928.6,1312.2,1007.1,1312.2,1007.1z"/>
		<path id="XMLID_75_" class="st17" d="M1159.1,993.2h-43.7L1099,835.1c-35.3-99.9-15.9-198.8-5.4-238.3c1.1-4,2.1-7.5,2.9-10.2
			c1.5-5.1,2.5-7.8,2.5-7.8h60.1l-1.7,23.1l-0.7,9.8l-15.2,209.6c5.2,12.3,9.1,25.6,12,39.2C1166.9,923.7,1159.1,993.2,1159.1,993.2
			z"/>
		<path id="XMLID_45_" class="st11" d="M1180.1,326.5C1180.1,326.5,1180.1,326.5,1180.1,326.5c-0.1,0.7-6.1,36.7-38.6,51.7l-4.7-6.3
			c-0.4-6.7-1.7-14.2-4.5-20.7l46.8-33.8L1180.1,326.5z"/>
		
			<ellipse id="XMLID_38_" transform="matrix(0.68 -0.7332 0.7332 0.68 149.2269 891.124)" class="st2" cx="1095.5" cy="274.6" rx="9.9" ry="13"/>
		<path id="XMLID_49_" class="st13" d="M1172.7,333.5L1172.7,333.5c-9.3,13.7-21.5,23.2-33.8,21.8c-13-1.5-23-17.7-30.4-36.1
			c-10.3-25.8-15.2-56-15.2-56c37.3-59.8,78.3-23,92.6,3.1C1194.6,282.1,1187,312.6,1172.7,333.5z"/>
		<path id="XMLID_60_" class="st3" d="M1235.6,398.3v83.5l-1.3,2.2l0,0l-30.9,51.9v55.2c0,0,0,0,0,0c-50.6,28.7-104.3,0-104.3,0
			c-11.8-9.2-36.3-172.8-21-190.6c15.3-17.9,48.6-21.1,48.6-21.1l9.7-12.5c2.2,11.8,11.4,20.5,22,21.5c12.1,1.1,23.7-8,26.4-21.5
			l9.9,9.2l9.4,5.1L1235.6,398.3z"/>
		<path id="XMLID_40_" class="st2" d="M1188.3,296.2c0,0-13.9-2.5-29.6-36.2c0,0-35.7,18.1-63.5,9.9c0,0-23.8-14.6-12.2-18.9
			c11.6-4.3,11.6-4.3,11.6-4.3s-12.9-24.2,1.6-22.7c14.6,1.5,17.4,4.6,17.4,4.6s-4.7-45.6,57-4.8c0,0-3.4-8.2-4.8-9.2
			c0,0,19.6,8.5,16.4,27.6C1182.5,242.2,1213.2,234,1188.3,296.2z"/>
		<g id="XMLID_43_">
			<path id="XMLID_62_" class="st0" d="M1114.9,309.6c-7.1,0-12.8-5.8-12.8-12.8c0-7.1,5.8-12.8,12.8-12.8c7.1,0,12.8,5.8,12.8,12.8
				C1127.8,303.8,1122,309.6,1114.9,309.6z M1114.9,286c-5.9,0-10.7,4.8-10.7,10.7c0,5.9,4.8,10.7,10.7,10.7
				c5.9,0,10.7-4.8,10.7-10.7C1125.6,290.8,1120.8,286,1114.9,286z"/>
		</g>
		<g id="XMLID_44_">
			<path id="XMLID_56_" class="st0" d="M1147.3,307.3c-7.1,0-12.8-5.8-12.8-12.8c0-7.1,5.8-12.8,12.8-12.8c7.1,0,12.8,5.8,12.8,12.8
				C1160.2,301.5,1154.4,307.3,1147.3,307.3z M1147.3,283.7c-5.9,0-10.7,4.8-10.7,10.7s4.8,10.7,10.7,10.7s10.7-4.8,10.7-10.7
				S1153.2,283.7,1147.3,283.7z"/>
		</g>
		<path id="XMLID_101_" class="st13" d="M935.8,441.3l-11.9,18l-4.4-6.6l-8.8-9.1l-3.4-3.6l-1.5,1.2c-0.3,0.2-0.7,0.5-1,0.8
			c-4.4,3.5-13.2,10.4-15,11.9l-0.2,0.2c-1.6,1.5-32.8-12.2-36.5-13.8c-0.8-0.3-1.9-1.1-3.2-2.1c0,0,0,0-0.1-0.1
			c-1.1-0.8-2.3-1.8-3.5-2.9c-2.2-1.9-4.5-4-6-5.4c-1.2-1.1-1.9-1.8-1.9-1.8c3.3-6.4,20.8,3.8,21.6,4.2c0,0,0,0,0,0l19.5-6.8
			l-15.2-3.1c-9.6,5.1-11-3.3-11-3.3l11.2-4.9c0,0,11.5,1.5,30.9,3.3c13.5,1.3,22.4,8.1,26.6,12l0,0c1.8,1.7,2.7,2.9,2.7,2.9
			l2.4,1.9L935.8,441.3z"/>
		<g id="XMLID_15_">
			<path id="XMLID_52_" class="st0" d="M1126.6,294.2l-0.8-2c1.7-0.7,3.4-1,5.2-1c1.7,0,3.4,0.3,5,1l-0.8,2
				c-1.4-0.5-2.8-0.8-4.3-0.8C1129.5,293.3,1128,293.6,1126.6,294.2z"/>
		</g>
		<path id="XMLID_30_" class="st2" d="M913.3,451.2l-7.6-8.1c-0.2-0.2-0.2-0.6,0-0.8l1.9-1.7c0.2-0.2,0.6-0.2,0.8,0l7.6,8.1
			c0.2,0.2,0.2,0.6,0,0.8l-1.9,1.7C913.8,451.4,913.5,451.4,913.3,451.2z"/>
		<path id="XMLID_11_" class="st18" d="M1144.8,776.2c0,0-13.9-100.5-12.3-153.5l17.4,87.3L1144.8,776.2z"/>
		<path id="XMLID_70_" class="st19" d="M1160,1052.5c-0.7,3.9-1.5,6-1.5,6h-116.2c0,0-0.7-2.9-1.3-6c-0.6-3.6-1-7.4,0.2-7.4
			c65.9-5.8,77.2-44.5,77.2-44.5c2.2-1,2.7,2.1,2.7,2.1s1.6,7.8,5.1,14.2c2.3,4.3,5.4,7.9,9.4,8c6.1,0.2,11.2-4.3,14.1-7.7
			c1.8-2.1,2.8-4.7,2.8-7.5v-9.1c2.5-0.4,3,0,3.7,13.2C1162.2,1031.3,1161.4,1045.1,1160,1052.5z"/>
		<path id="XMLID_69_" class="st19" d="M1325,1078.7c0,0-6.8,5.8-13,12.8c-3.7,4.2-7.2,8.8-9,12.8c-4.8,10.9-41.6,34.3-74.1,22.6
			c-12.7-5.2-15-11.3-15.4-12.5c0-0.1,0-0.2,0-0.2s-1.5-3.5,1.3-4.2c2.8-0.8,51.3-12,56.7-71.8c4.8-5,15.8,0.7,16.2,3.2
			c0.4,2.4-0.8,4.5,1,5.2c1.8,0.7,20-3.5,22.9-11c0,0,5.5,21.8,13.4,28.1c0.4,0.9,0.7,2.1,0.8,3.6
			C1326.1,1072,1325,1078.7,1325,1078.7z"/>
		<path id="XMLID_68_" class="st2" d="M1208.3,594.4c-16.8,12.3-34.9,16.9-51.6,17.4c-12.5,0.4-24.2-1.5-34.2-4.1
			c-14.5-3.7-25.2-9-28.9-10.8c1.1-4,2.1-7.5,2.9-10.2c8,5.5,16.2,9.4,24.2,11.9c12.9,4,25.5,4.6,36.8,3.5
			c23.4-2.3,41.5-12.1,46.3-15C1205.3,589.3,1206.8,591.8,1208.3,594.4z"/>
		<path id="XMLID_66_" class="st2" d="M1325,1078.7c0,0-6.8,5.8-13,12.8c-12.1-2.6-32.1-8.1-28-15.6c5.7-10.7,4.7-29.3,4.7-29.3
			c1.8,0.7,20-3.5,22.9-11c0,0,5.5,21.8,13.4,28.1c0.4,0.9,0.7,2.1,0.8,3.6C1326.1,1072,1325,1078.7,1325,1078.7z"/>
		<path id="XMLID_61_" class="st10" d="M1325,1078.7c0,0-17.1,14.8-22,25.6c-4.8,10.9-41.5,34.3-74.1,22.6
			c-12.7-5.2-15-11.3-15.4-12.5c0-0.1-0.1-0.2-0.1-0.2s39.9,9,56,1.5c16-7.5,22-9.9,26.6-15.2c4.6-5.3,26-33.1,29.7-33.2
			C1326.1,1072,1325,1078.7,1325,1078.7z"/>
		<path id="XMLID_65_" class="st2" d="M1160,1052.5c-0.7,3.9-1.5,6-1.5,6h-51c-9-10.8-2-26.9,1.6-27.5c4.3-0.7,17-14.2,17-14.2
			c2.3,4.3,5.4,7.9,9.4,8c6.1,0.2,11.2-4.3,14.1-7.7c1.8-2.1,2.8-4.7,2.8-7.5v-9.1c2.5-0.4,3,0,3.7,13.2
			C1162.2,1031.3,1161.4,1045.1,1160,1052.5z"/>
		<path id="XMLID_53_" class="st10" d="M1160.1,1052.5c-0.7,3.9-1.5,6-1.5,6h-116.2c0,0-0.7-2.9-1.3-6H1160.1z"/>
		<path id="XMLID_64_" class="st18" d="M1281,1008.2c9.5-38.8,5.1-106.8,1.5-145.4c28.7,65.8,29.8,144.4,29.8,144.4L1281,1008.2z"/>
		<path id="XMLID_67_" class="st18" d="M1159.1,993.2h-43.7c0,0,37.9-85.6,38.1-132.6C1166.9,923.7,1159.1,993.2,1159.1,993.2z"/>
		<polygon id="XMLID_50_" class="st11" points="935.8,441.3 919.5,452.7 923.9,459.3 		"/>
		<g id="XMLID_54_">
			<path id="XMLID_78_" class="st7" d="M1301.6,1007.5c-2.8-72.5-45.9-172.6-46.4-173.6l0-0.1l0-0.1c2.8-82.1-55.7-228.2-56.3-229.6
				l0.5-0.2c0.1,0.4,15,37.2,29.2,83.7c13.2,42.9,28.6,103.1,27.1,146.1c1.2,2.9,43.6,101.9,46.4,173.8L1301.6,1007.5z"/>
		</g>
		<g id="XMLID_37_">
			<path id="XMLID_86_" class="st7" d="M1152.8,993.2l-0.5-0.1c5.4-53.6,0.5-96.9-4.5-123.9c-5.5-29.2-12.3-45.9-12.4-46.1l0-0.1
				l0-0.1l11.1-128.8l0.5,0L1135.9,823c0.5,1.1,7.1,17.8,12.4,46.1C1153.3,896.2,1158.2,939.6,1152.8,993.2z"/>
		</g>
		<path id="XMLID_19_" class="st2" d="M909.6,442.2c0,0,11.4-11.4,14.1-11.7c1.3,0,4.4,2.9,4.5,3.9c0.1,1-13.6,13.3-13.6,13.3
			L909.6,442.2z"/>
		<path id="XMLID_102_" class="st16" d="M1172.7,333.5L1172.7,333.5c-9.3,13.7-21.5,23.2-33.8,21.8c-4.4-0.5-8.4-2.6-12.1-6
			c-7.3-6.6-13.4-17.9-18.3-30.1c9.5-0.6,37.8-3.3,56.2-15.3c0.9-0.6,1.8-1.2,2.7-1.9C1167.3,302.1,1164.4,312.3,1172.7,333.5z"/>
		<g id="XMLID_22_">
			<path id="XMLID_48_" class="st0" d="M1168,302.5l-1.4-0.8c0.3-0.6,8.6-15.3,15.4-17c1.4-0.4,2.4,0.3,3.5,1l-0.6,0.9
				c-0.7-0.5-1.6-0.6-2.5-0.3C1176.3,287.8,1168.1,302.3,1168,302.5z"/>
		</g>
		<g id="XMLID_23_">
			<path id="XMLID_51_" class="st0" d="M1173.4,333.8l-1.4-0.7c0.1-0.3,14.9-28.7,15.5-35l1.6,0.2
				C1188.5,304.8,1174.1,332.7,1173.4,333.8z"/>
		</g>
		<ellipse id="XMLID_41_" class="st13" cx="1183.2" cy="294.4" rx="6.4" ry="9.5"/>
		<circle id="XMLID_24_" class="st11" cx="1183.1" cy="293.3" r="2.3"/>
		<path id="XMLID_95_" class="st0" d="M1285.4,716.3c-20,18.4-70.9,22.5-70.9,22.5c-87.3-231.5-51.8-345.8-51.8-345.8l3.9-26
			c28.4-6.4,31.6-11.6,31.6-11.6l9.1,17.1l28.3,25.8l0,83.6l0.9,4.5L1285.4,716.3z"/>
		<path id="XMLID_79_" class="st2" d="M1115.6,586.6c0,0,4.7,122.7,14,153l-9.6-0.8C1120.1,738.8,1109.5,614.4,1115.6,586.6z"/>
		<path id="XMLID_99_" class="st0" d="M1129.4,363.2l-0.1,0.1c-0.1-0.1-0.1-0.1,0-0.1L1129.4,363.2z"/>
		<path id="XMLID_103_" class="st0" d="M1136.6,398.3c0,0-32.8,74.7-16.6,340.5c0,0-32.6-1.8-62-32.3c0,0,0.1-100.3,4.9-189.2
			c3-55.4,7.9-106.4,15.8-125.9c0,0,29.7-8.1,42.7-13.2l7.8-14.8c0.3,0.3,2.3,1.3,12.2,4.5L1136.6,398.3z"/>
		<path id="XMLID_84_" class="st18" d="M1174.6,609.6c0,0,8.4,69.4,33.7,136.8l32.7-11.7c0,0-17.6,3.8-26.5,4.1
			C1214.5,738.8,1173.8,621.3,1174.6,609.6z"/>
		<path id="XMLID_93_" class="st10" d="M1214.5,738.8c35.8-74.2,25.5-215.4,22-252.5l48.9,229.9
			C1265.4,734.7,1214.5,738.8,1214.5,738.8z"/>
		
			<rect id="XMLID_85_" x="1201.6" y="675.6" transform="matrix(0.9016 0.4326 -0.4326 0.9016 430.05 -475.9139)" class="st9" width="118.9" height="63.3"/>
		<path id="XMLID_29_" class="st13" d="M1234.5,716.9l26.8-18.2c1-0.7,1.2-2,0.6-3l-2.8-4.1c-0.7-1-2-1.2-3-0.6l-26.8,18.2
			c-1,0.7-1.2,2-0.6,3l2.8,4.1C1232.2,717.3,1233.5,717.5,1234.5,716.9z"/>
		<path id="XMLID_39_" class="st0" d="M1235.6,398.3c0,0,44.4,10.9,53.6,58.8s23,121.3,23,121.3l-13.8,94.7l-35.7-7.4v-80
			l-27.2-108.4V398.3z"/>
		<path id="XMLID_94_" class="st10" d="M1071.8,420.5c0,0-7.3,64-8.8,96.7c-13.3,13.3-30.9,26.3-44.3,34c-3.6,2-8.6,1-14.5-2.3
			C1021.2,528.7,1059.3,478.4,1071.8,420.5z"/>
		<path id="XMLID_98_" class="st10" d="M1141.5,367.9c0,0-14.1,27-62.7,23.5c0,0,29.7-8.1,42.7-13.2l7.8-14.8
			c-0.1-0.1-0.1-0.1,0-0.1l0.1,0L1141.5,367.9z"/>
		<path id="XMLID_36_" class="st2" d="M1204.6,628.4c0,0,15,2.3,42.5-5.7L1204.6,628.4z"/>
		<path id="XMLID_96_" class="st17" d="M1166.2,303.9c0,0-13.1,26.2-39.4,45.4c-7.3-6.6-13.4-17.9-18.3-30.1
			c9.5-0.6,37.8-3.3,56.2-15.3L1166.2,303.9z"/>
		<path id="XMLID_31_" class="st0" d="M1173.5,333.2c-8.1-20.6-5.4-30.8-5.4-30.9l0.6-2.3l-1.9,1.4c-0.6,0.5-1.3,0.9-1.9,1.4
			c-18.3,12.4-47.7,15.1-56.5,15.6l-1.1,0.1l0.4,1c9,22.7,19.3,35,30.6,36.5c0.1,0,0.2,0,0.4,0.1c0.8,0.1,1.6,0.1,2.4,0.1
			c10.8,0,22.4-8,32.2-22.3l0.1-0.2L1173.5,333.2z M1139,354.5c-0.3,0-0.6-0.1-0.8-0.1c-10.3-1.7-19.9-13.3-28.5-34.4
			c10.1-0.7,38.6-3.7,56.5-16c0,0,0,0,0,0c-0.4,3.9-0.6,13.6,5.6,29.5C1161.7,348,1149.8,355.7,1139,354.5z"/>
		<path id="XMLID_92_" class="st10" d="M1120.1,738.8c0,0-32.6-1.8-62-32.3c0,0,0.1-100.3,4.9-189.2l0-0.1
			C1063,517.2,1074.9,666.4,1120.1,738.8z"/>
		<path id="XMLID_87_" class="st2" d="M1077.4,628.7c0,0,6.9,5.8,25.7,3.1C1103.2,631.8,1088,632.4,1077.4,628.7z"/>
		<path id="XMLID_91_" class="st11" d="M860,432.3c-0.7-0.2-15.2-5.4-19.7-2.4c-1.2-1.1-1.9-1.8-1.9-1.8
			C841.7,421.7,859.2,431.9,860,432.3z"/>
		<polygon id="XMLID_100_" class="st0" points="1225.9,655.3 1229.7,653 1328.7,694.6 1322.1,701.5 		"/>
		<path id="XMLID_58_" class="st13" d="M1291.5,723.9c-3.3,13.6-9.1,25.6-12.8,28.7c-4.5,3.8-20.9-2.8-31.5-11.6c0,0,0,0,0,0
			c-5.2-4.3-9-9.1-9.4-13.5c-1-13.3,20.5-35.8,20.5-35.8c4.6-10.8,7.7-25.4,7.7-25.4l25.2,5.2l1.4,20.1
			C1295.3,701.1,1294.2,713,1291.5,723.9z"/>
		<path id="XMLID_35_" class="st11" d="M1266,666.4c0,0,21.2,12.3,26.6,25.4l-1.4-20.1L1266,666.4z"/>
		<path id="XMLID_55_" class="st11" d="M1291.5,723.9c-3.3,13.6-9.1,25.6-12.8,28.7c-4.5,3.8-20.9-2.8-31.5-11.6c0,0,0,0,0,0
			S1274.5,747.4,1291.5,723.9z"/>
		<polygon id="XMLID_105_" class="st2" points="1328.7,694.6 1325.3,703 1322.1,701.5 		"/>
	</g>
</g>
</svg>
